<svg xmlns="http://www.w3.org/2000/svg" width="17.098" height="13.298" viewBox="0 0 17.098 13.298">
  <path id="Icon_awesome-credit-card" data-name="Icon awesome-credit-card" d="M0,14.124a1.425,1.425,0,0,0,1.425,1.425H15.673A1.425,1.425,0,0,0,17.1,14.124V8.9H0Zm5.7-2.018a.357.357,0,0,1,.356-.356h4.037a.357.357,0,0,1,.356.356v1.187a.357.357,0,0,1-.356.356H6.055a.357.357,0,0,1-.356-.356Zm-3.8,0a.357.357,0,0,1,.356-.356H4.393a.357.357,0,0,1,.356.356v1.187a.357.357,0,0,1-.356.356H2.256a.357.357,0,0,1-.356-.356Zm15.2-8.43V5.1H0V3.675A1.425,1.425,0,0,1,1.425,2.25H15.673A1.425,1.425,0,0,1,17.1,3.675Z" transform="translate(0 -2.25)" fill="#1f366a"/>
</svg>
