<svg xmlns="http://www.w3.org/2000/svg" width="22.9" height="22.9" viewBox="0 0 22.9 22.9">
  <path id="Subtração_1" data-name="Subtração 1" d="M18.211,21.9H3.689A3.693,3.693,0,0,1,0,18.212V3.689A3.693,3.693,0,0,1,3.689,0H18.211A3.693,3.693,0,0,1,21.9,3.689V18.212A3.693,3.693,0,0,1,18.211,21.9ZM10.051,7.162a1.437,1.437,0,0,0-1.223.746,3.057,3.057,0,0,0-.41,2.74,2.221,2.221,0,0,1,0,1.381c-.029.106-.056.215-.083.319-.017.066-.033.129-.049.193q-.08.307-.162.614v0a21.322,21.322,0,0,0-.834,4.35,10.121,10.121,0,0,0,.114,2.146c1.538-1.281,1.915-2.985,2.315-4.79.045-.205.092-.416.14-.624l.232.155c.167.111.325.215.48.325a2.9,2.9,0,0,0,1.693.551h0a4.342,4.342,0,0,0,3.859-2.235A7.065,7.065,0,0,0,17.182,9.3V9.179a9.17,9.17,0,0,0-.06-.966,4.549,4.549,0,0,0-1.738-3.17,6.532,6.532,0,0,0-4.115-1.4H11.2a9.218,9.218,0,0,0-1.27.1,5.938,5.938,0,0,0-5.21,5.783v.048a6.548,6.548,0,0,0,.037.669A2.77,2.77,0,0,0,6.978,12.9a1.411,1.411,0,0,0,.033-1.674,3.127,3.127,0,0,1-.325-2.78A4.827,4.827,0,0,1,11.22,5.107a4.176,4.176,0,0,1,.723.063,3.784,3.784,0,0,1,1.842.849,3.257,3.257,0,0,1,1.068,1.967,6.662,6.662,0,0,1-.116,2.783,4.928,4.928,0,0,1-.985,2.029,2.27,2.27,0,0,1-1.738.865,2.09,2.09,0,0,1-.725-.131,1.034,1.034,0,0,1-.76-1.06,7.343,7.343,0,0,1,.227-1.376c.08-.327.176-.657.269-.976.121-.417.247-.847.338-1.277a1.451,1.451,0,0,0-.16-1.159,1.336,1.336,0,0,0-.957-.508A1.5,1.5,0,0,0,10.051,7.162Z" transform="translate(0.5 0.5)" fill="#1f366a" stroke="rgba(0,0,0,0)" stroke-width="1"/>
</svg>
