<svg xmlns="http://www.w3.org/2000/svg" width="21.899" height="21.9" viewBox="0 0 21.899 21.9">
  <path id="Caminho_78" data-name="Caminho 78" d="M183.42,0H168.9a3.692,3.692,0,0,0-3.688,3.689V18.212A3.691,3.691,0,0,0,168.9,21.9H183.42a3.691,3.691,0,0,0,3.688-3.688V3.689A3.692,3.692,0,0,0,183.42,0m-2.31,11.229c-1.253.626-2.507,1.281-3.758,1.933-1.477.772-3.006,1.568-4.492,2.3l-.339.165V6.276l.346.184c1.048.558,2.106,1.1,3.164,1.651,1.683.869,3.424,1.767,5.09,2.7l.387.217Z" transform="translate(-165.209)" fill="#1f366a"/>
</svg>
