<svg xmlns="http://www.w3.org/2000/svg" width="15.273" height="14.403" viewBox="0 0 15.273 14.403">
  <path id="Icon_ionic-md-arrow-round-forward" data-name="Icon ionic-md-arrow-round-forward" d="M14.516,20.326l5.992-5.814a1.322,1.322,0,0,0,.391-.972v-.017a1.322,1.322,0,0,0-.391-.972L14.516,6.737a1.283,1.283,0,0,0-1.874,0,1.435,1.435,0,0,0,0,1.961l3.6,3.445H6.957a1.39,1.39,0,0,0,0,2.777h9.285l-3.6,3.445a1.435,1.435,0,0,0,0,1.961A1.288,1.288,0,0,0,14.516,20.326Z" transform="translate(-5.625 -6.33)" fill="#1f366a"/>
</svg>
