<svg xmlns="http://www.w3.org/2000/svg" width="12.903" height="14.247" viewBox="0 0 12.903 14.247">
  <path id="Icon_ionic-md-share" data-name="Icon ionic-md-share" d="M15.247,13.189a1.959,1.959,0,0,0-1.4.537l-5.14-2.971a2.407,2.407,0,0,0,.072-.5,2.406,2.406,0,0,0-.072-.5l5.068-2.935a2.151,2.151,0,1,0-.683-1.575,2.393,2.393,0,0,0,.072.5L8.094,8.678a2.163,2.163,0,0,0-1.474-.573A2.128,2.128,0,0,0,4.5,10.253a2.164,2.164,0,0,0,3.63,1.575l5.1,2.971a1.8,1.8,0,0,0-.072.465,2.085,2.085,0,1,0,2.085-2.076Z" transform="translate(-4.5 -3.094)" fill="#966400"/>
</svg>
