<svg xmlns="http://www.w3.org/2000/svg" width="20.661" height="20.668" viewBox="0 0 20.661 20.668">
  <path id="Icon_awesome-teamspeak" data-name="Icon awesome-teamspeak" d="M9.858,14c.1-.5-.484-1.211-1.308-1.966a13.647,13.647,0,0,0-2.559-1.881,1.193,1.193,0,0,0-1.869.916,4,4,0,0,0,.585,2.983,2.165,2.165,0,0,0,1.752.969,13.367,13.367,0,0,0,2.491-.04A1.272,1.272,0,0,0,9.858,14Zm8.275.84a.211.211,0,0,0-.335.1c-.323,1.025-1.8,4.541-6.947,4.9-6.043.424,3.242,1.76,5.87-.258A3.7,3.7,0,0,0,18.6,16.134a2.137,2.137,0,0,0-.468-1.3Zm2.5-4.941a1.815,1.815,0,0,0-1.05-1.7.352.352,0,0,1-.238-.258,8.988,8.988,0,0,0-1.631-3.778c-.044-.061-.141-.129-.089-.2.343-.464-.012-.727-.283-.985A9.646,9.646,0,0,0,7.161.528,8.962,8.962,0,0,0,3.044,3.248c-.161.174-.27.367-.121.585.121.161.052.25-.04.375A9.141,9.141,0,0,0,1.3,7.911a.394.394,0,0,1-.258.315A1.753,1.753,0,0,0,.032,9.6L0,10.668v.844A1.873,1.873,0,0,0,2.091,13.49a.444.444,0,0,0,.484-.464c.081-3.129-.1-3.851.149-5.078A7.773,7.773,0,0,1,13.939,2.639a7.576,7.576,0,0,1,4.13,6.838c.032,1.138,0,2.281,0,3.415,0,.283.089.5.379.573A1.839,1.839,0,0,0,20.6,11.984a12.423,12.423,0,0,0,.04-2.087Zm-6.443,5.308a2.249,2.249,0,0,0,2.357-2.442c-.085-1.825-2.672-.666-3.544-.323-2.955,1.134-1.817,2.216-.9,2.454Z" transform="translate(0 0.002)" fill="#1f366a"/>
</svg>
